<?xml version="1.0" standalone="no"?>
<!DOCTYPE svg PUBLIC "-//W3C//DTD SVG 20010904//EN"
 "http://www.w3.org/TR/2001/REC-SVG-20010904/DTD/svg10.dtd">
<svg version="1.0" xmlns="http://www.w3.org/2000/svg"
 width="256.000000pt" height="256.000000pt" viewBox="0 0 256.000000 256.000000"
 preserveAspectRatio="xMidYMid meet">

<g transform="translate(0.000000,256.000000) scale(0.100000,-0.100000)"
fill="#000000" stroke="none">
<path d="M932 2388 c-17 -17 -15 -161 3 -205 8 -19 15 -37 15 -39 0 -2 -21
-12 -46 -23 -64 -29 -137 -84 -165 -126 l-24 -35 -110 0 c-114 0 -135 -6 -135
-42 0 -28 33 -38 120 -38 74 0 81 -2 75 -17 -20 -52 -25 -146 -25 -435 0 -346
3 -365 55 -406 49 -39 77 -40 368 -16 303 24 339 33 392 96 l25 30 35 -31 c59
-52 80 -53 406 -27 309 26 339 32 397 81 61 51 77 96 77 215 0 98 -2 109 -30
158 -16 30 -42 64 -57 77 -26 22 -28 29 -28 97 0 72 -10 98 -36 98 -26 0 -44
-32 -44 -76 l0 -44 -340 0 -340 0 0 100 0 100 480 0 480 0 0 -391 0 -391 -33
-33 c-24 -24 -46 -35 -78 -39 -126 -17 -1697 -136 -1721 -130 -36 7 -97 59
-110 93 -5 14 -56 311 -113 660 -109 668 -109 669 -166 698 -32 17 -231 17
-247 1 -18 -18 -14 -46 7 -58 11 -5 65 -10 120 -10 55 0 102 -4 105 -9 3 -4
50 -287 105 -627 55 -341 105 -635 111 -655 5 -20 21 -53 35 -73 24 -36 25
-42 25 -200 l0 -164 -25 -6 c-40 -10 -102 -73 -121 -122 -58 -153 97 -308 250
-250 49 19 112 81 122 121 l6 25 707 0 707 0 12 -34 c16 -44 80 -102 130 -117
153 -45 298 113 236 259 -32 78 -99 125 -179 125 -83 1 -153 -46 -185 -123
l-12 -30 -707 0 -707 0 -18 40 c-19 43 -66 87 -108 102 l-28 10 0 137 0 137
68 -4 c37 -2 443 26 902 63 937 74 894 68 955 154 l30 43 3 425 c2 310 0 429
-9 439 -9 11 -42 14 -140 14 l-129 0 0 68 c0 40 -5 73 -12 80 -9 9 -114 12
-410 12 -454 0 -418 8 -418 -94 l0 -54 -58 57 c-35 35 -82 70 -119 87 -60 28
-60 29 -45 52 20 31 29 180 13 210 -11 21 -19 22 -149 22 -94 0 -142 -4 -150
-12z m228 -119 c0 -62 -10 -83 -50 -99 -24 -10 -36 -10 -60 0 -40 16 -50 37
-50 99 l0 51 80 0 80 0 0 -51z m71 -222 c30 -14 68 -40 84 -57 l29 -30 -270 0
-269 1 35 30 c78 67 147 90 256 86 63 -3 93 -9 135 -30z m969 -47 l0 -40 -340
0 -340 0 0 40 0 40 340 0 340 0 0 -40z m-782 -157 c14 -32 17 -81 20 -328 2
-286 2 -291 -20 -330 -40 -69 -73 -79 -329 -99 -123 -9 -245 -20 -271 -23 -41
-5 -50 -2 -72 20 -20 20 -26 36 -26 71 l0 44 128 4 c115 3 130 5 161 27 58 42
71 85 71 254 0 169 -9 200 -68 245 -33 26 -42 27 -164 30 -70 2 -128 7 -128
11 0 4 7 31 15 59 l16 52 325 0 325 0 17 -37z m-443 -188 c24 -23 25 -28 25
-175 0 -147 -1 -152 -25 -175 -23 -24 -30 -25 -140 -25 l-115 0 0 200 0 200
115 0 c110 0 117 -1 140 -25z m575 -59 c0 -2 -7 -9 -15 -16 -12 -10 -15 -10
-15 4 0 9 7 16 15 16 8 0 15 -2 15 -4z m-956 -1218 c16 -26 -4 -53 -40 -53
-23 0 -30 5 -32 23 -7 47 47 69 72 30z m1794 13 c8 -5 12 -21 10 -37 -3 -32
-38 -45 -64 -24 -40 34 9 90 54 61z"/>
</g>
</svg>
